/* XPM */
static char * blue_brick_xpm[] = {
"63 62 18 1",
" 	c #000070",
".	c #383838",
"+	c #000098",
"@	c #000088",
"#	c #00007C",
"$	c #000000",
"%	c #202020",
"&	c #000064",
"*	c #000058",
"=	c #0000A4",
"-	c #00004C",
";	c #0000B0",
">	c #0000BC",
",	c #2024FC",
"'	c #000040",
")	c #0000D4",
"!	c #0000FC",
"~	c #4040FC",
"                           ..             ..            .     .",
"+++++++++++++++++++++@@@#  $%++++++++@####$%++++++++##&*$====@$",
"+++#+ ++@ @@ @@@  +#    &*-$%++@@#++@####-$%+;=;=;;;;;@ $==#@#$",
"+@ #@@@  +@+*@@*#  @@  &**-$%+@++#@@ # +&-$%+=;;+;>=;+@ $++=@-$",
"+#+&@&@   @## *#&@* &**---*$%+@##@@ # &-*-$%+;=+>;=+@##&$#&  -$",
"+# +++*   +@@@## &*   &&*-*$%++#++ &&&#*--$%+;+>,>+;+@& $@#&*-$",
"+@@==+++@+++@@&#- *    &---$%+++## &###&*-$%+=;+;;++=  &$@ ---$",
"++@+==+@ *++@## &&&*  &*-**$%++# ### # *--$%+=;=+===+ & $@*-*-$",
"+@ @++#@ @&&###** #-&&&**--$%+@##&#++ & -*$%+=>==##++@&*$$$$$$$",
"+###+   ++&-*-&-#& &*&&*---$%+##&  ##&*-*-$%+=;+=###@#*-$@===+$",
"@ #+##&@++&&---&* &*&  &-*-$%@# &&##& *-*-$%+=;;+#### **$+=@=#$",
"@#@  +#* - ----**#''-   ---$%@# &&&#-&-&--$%+=;;=+##@ **$@+#@*$",
"@ @ *## * * *-&-&-'''-&&-*-$%@ #&&**&*-**-$%+=;;+@@ #&--$@+@&-$",
"@@   &*--* *&**----''------$%##&&*----*-*-$%+=+;#@#@  -*$## *&$",
"@ @**&* *&--*-****---------$%#*#**--------$%@;=;;#+#&*--$ &*--$",
"$$$$$$$$$$$$$$$$$$$$$$$$$$$$%$$$$$$$$$$$$$$%@;=+@@##*-*-$$$$$$$",
";=+=+++++=++++%%%%%%%%%%%%%%%%%%%%%%%%%%%%%%@=;@; @  *--$&>>>>>",
"=+@+;=+#++ +@ $%%* @ @@++  --''%%%-&@@+# &&%@;=;@@>@ &*-$#>>);>",
"=@@#++# @@  @@$%* @@@@+=++#*&&*-%%&@+ # # *$@@+=;@@  &-*$+>)!)=",
"+@==@@   @    $%@@@=+== #@*&*-*&%% + &* *- $#==;=@# *-**$+>>)=>",
"#@=;=  @@ @-  $'=@=#=+ -& &--*& $%##+ &&-&*$#;==&&# &**-$=>>=+=",
"+#@== @  **&  $'++==+=@& &-***-&$%&+##*- --$ +++&&& &---$;>>=>+",
"# #@+@  @*& --$-+==+>@# &***-&&-$%&&*--*-**$ @++#&&&*---$=>=;=+",
"+#@ @ @@ & * -$&@++# ##&& &*&--&$%%$$$$$$$$$ @@;  &&&-*-$=>=+@;",
"=@#=@@@@  &---$&@+# @#&-&&@& & &$++;;++@@#$%@@+@@ &&-*--$+>>=>>",
"+# #==* @##&-*$&@# =+@ & #>=#&*&$+;;+@#&# $%@;=+@  &***-$+>=>;=",
"@ #+==+@ ##&-*$-## @=@@##@=#  & $+@++#&+&*$%+;=;+@#&*-**$+>>>=+",
"@=@@+=+* &&&--$'  #=~=#+@ @#&#* $++@ #+#&&$%+=+;+@ &**&-$#>>>==",
"##++@++*&-*---$'  #@=++@++#@ - -$+++@+&&#&$%++@+#@# ---*$#>=>>+",
"@#+++@ &*-*''-$$ #@+#+#+=&=&-*&-$+>=+#&***$%+@+#    ----$#>>;==",
"#@#++ **---''*$$*  @ @+@+=&-* --$+@=+#&&&*$%+@;+@#&&-&--$#>>=@+",
"## ## **&  *-*$%-*    @+& @& ---$+@@+ **&-$%++=;+#&*  --$#>=>=@",
"#+@&  &*&  *--$%%'-------------'$+@+*& &*-$%++==++@ * *-$#>=>##",
"+@## **-*&&*--$%%%$$$$$$$$$$$$$$$++# ***--$%+;;+@@@@#*--$#>>#@#",
"@@#    -*'--*-$%%******&&&****-%%+##&--*--$%+;;+@ @@# &-$&>=>@@",
"## &   -'''---$%%*& @@ @##  **-$%++# *-*--$%+@;@; &# &*-$&>=@@#",
"#*& *  -''''*-$%%* @@#@ &#&&#&-$%++ @&*---$%+++=@@&&***-$&==@##",
"@ * *&-*'-''--$%%*@#&@@&#&-&@&&$%++@+ &*--$%+;+@@&--&---$&=@#@#",
"#@#& &---'''--$%%*@ @  @&#*-&&-$%+@+@# &**$%+;@+@&*--&--$&=@@@#",
"@# *& &--*--**$%%*#@@ &*-*--*--$%++#  &**-$%@=@@  &**---$&@@@ @",
"$$$$$$$$$$$$$$$%%*@# *--*--&&&-$%@@  *&-*-$%@+@ - --*---$%$$$$$",
"%%%%%--&&### &*--%$$$$$$$$$$$$$$%@+ *&&--*$%# -*-&&*----$%&&&&%",
"%@+=;;;;;;;;;;;;===++@@ %%%%%%%%%@@ &*----$%# **----*-&-$%&- -%",
"%+;;;;;=+=;+++;++== ###*$%--**&%%@ #&-----$%%$$$$$$$$$$$$%---&%",
"%+;==+==;;;@+;;;=+#=* -*$%-@#= $%# #*&*-**$%%%%%%%%%%%%%%%%%%%%",
"%;;;==;;@@+;;@=#+@@ #*-*$%-+=@-$%  *&*----$%%;;;;;;;;;;;;;===+%",
"%;+=+===@@@;+##+ @@@ &--$%*==+#$%%$$$$$$$$$%%;;;;==++===++=;+#$",
"%;;=@#==+@@+;;+++ @@ --*$%*+#&-$%#@+=+++@##%%;==;=+>>+=+@;;@@#$",
"%;;@+;=#+=== ++!+@*&*-*-$%&@&--$%@+=+@=@=&&$%;;==+;;>  @# @&# $",
"%;;;;+#;#=  +#++@ @@ ***$%&#*-*$%+==+# #&-*$%;=;=+==+   @+   &$",
"%;+;@++;=@   ++& @  *- -$%%$$$$$%@+## &-*--$%;;=))+@+@  +##@*-$",
"%;=@@;);+#+  ++## @&&*--$%%%%%%%%$$$$$$$$$$$%;=+))>;=+@= &@@*-$",
"%;+;+)~)@@+@# #### ''-*-$%@@@+++++++@@@##&&%%;=+@>>+@ @ #@@ *-$",
"%;=;=;);+ ++*** ##&'''--$%@+@#+#@++#@+  &&-$%;++=@#@#+# #+#&*-$",
"%;+;===### &****&&&-''--$%@@###+++=@###*&--$%;;+@@## #@@@#&*--$",
"%+;==+  @+@@ ****&*- ---$%+#++=@+@+++@# &-*$%;=+@   & #@ *-*&-$",
"%;+;=##= ++@& -&  -*---*$%++#+@# #@++@# -**$%;=;=+#&-- &--''*-$",
"%;+;+@# *#++@&*-   -*-*-$%@#+@#+ #@@@# &*--$%;;++  @--*&--'''-$",
"%=+###+*#*#@@&&*   --&--$%@+#   #&  # &*---$%=@+@;@  *&-&--''-$",
"%=+&*#*+  @-*--*-  --**-$%#@+ & * & &&&-**-$%=;+ @&& -*---***-$",
"%++##*#-*-*&*&*&--------$%#@# &*&&*-&--**--$%+ @ #@ &*-*-*----$",
"%+@ #@&&&&&&************$%# &&&&&&******&*&%%+@ # &&**********%"};
