/* XPM */
static char * brown_wall_xpm[] = {
"63 63 36 1",
" 	c #545454",
".	c #FCCCB0",
"+	c #FCD4BC",
"@	c #FCC4A4",
"#	c #FCB890",
"$	c #DC8854",
"%	c #885830",
"&	c #404040",
"*	c #FCBC9C",
"=	c #FCB080",
"-	c #FCA470",
";	c #BC7848",
">	c #C87C4C",
",	c #9C6038",
"'	c #D08050",
")	c #905C34",
"!	c #2C2C2C",
"~	c #5C5C5C",
"{	c #F0945C",
"]	c #80502C",
"^	c #FC9C60",
"/	c #E88C58",
"(	c #B47044",
"_	c #744C28",
":	c #A86840",
"<	c #FCA85C",
"[	c #A0643C",
"}	c #6C4824",
"|	c #5C4020",
"1	c #343434",
"2	c #543C1C",
"3	c #383838",
"4	c #4C4C4C",
"5	c #FCD8C4",
"6	c #FCE0D0",
"7	c #646464",
" .+.@@@@#$%& *@###=========-;%& =##******####->, ..@@@@@@@#')!&",
" .+.@@@@#$%& *@###=========-;%& =##******####->,~..@@@@@@@#')!&",
" *@*####->%& **#==---------{;]& =####=====##={;,~*@**####*=')!&",
" #@====={;%& **=--{{{^^^^^^/;%& -============{;,~##==#===#-;)!&",
" ##=----/(_& *@=--^{{{^^^^^/;%& {=-----------/;,~=========-(]!&",
" ==-^^^^$:_& **=^^^^^{{{{^^/;%& $-^^^^^^^^^^{$()~==-------{:_!&",
" -={{{{/':_& *@=^<<^^^{{{{^/;%& $-{{{{{{{{{{/'()~=-^^^^^^^/:_!&",
" --{/$/$>[_& *@=^<^<--^{{{{/(]& $^{/////////$>()~=-{{{{{{{$[_!&",
" --/$$$';,}& #*=^^^<---^{{{$(%& ${$$$$$$$$$$';:% -{///////'[}!&",
" --$''''()}& #*=<^<^--^{{{{$(%& '/$'''''''''>([% -{$$$$$$$>,}!&",
" --$>>>>()}& =#-<^^---^{{{/$()& '$'>>>>>>>>>;:,% ^$''''''';,}!&",
" =-';;;;:)|&~===-^---^{{{//$;[& ;'>;;;;;;;;;(:,] {$>>>>>>>()}!&",
" -->(((([]|&~-==---{^^{{//$';[& (';(((((((((([%] $$;;;;;;;()}!&",
" ;':[[[,)|1&~$=---{{{{{//$$>([& (;(:::(:::::[%]_ $'(((((((:]|!&",
"&%)]]]]]}21&~$----{///$$$'>(:)& :([,[[[[[[[)%]__ '>:::::::,_|1&",
"&2|||||221&& '{{{/$''>>;;;(:[%& )))))))))))%]__& ';::::::[)|!&&",
"&&33&&311&&4 :;((::,,[[[[[[[%&& 4__}}}}}}}}}}_&& ';::[[[[,_|!4&",
" ~  ~~ 4&&4  4&&&&&&&&&&&&&&&&4  44&&&&&&&&&&&&& ;;:[[[[)_|1&44",
"@@@#=-^{'([%~~~~~~ 44    ~~~~~~~~~    4&&:((:,,& ;(:[,))_|!|:$5",
"+...@@@*====*##==-$:4 #######=-^{/$'>;:&&:;;([]& :[))]]_|!1]>^.",
"+.@@@@@@@@@@@@@@*={(&4;$';;;;;;;;;;;;()&&%[[)%_& __}}|||!1&,$@.",
"+..@@@@@*********={(&&&&&&&&&&&&&&&&&&&&&&&&&44444&&1111&&|:^..",
"..@@@@@*#####==##={:&&4~~~ 4444                 44444444&&]>*..",
"@@@@@@*#=========={:&4:;;;;([& :(((((:[,%]4 '=====-{$$';&&,$*@@",
"#****#============{:& (;(((:,3 ((::::[,)%]& ==------^{$;3&:^@**",
"#####==========---{:& (:,,,,,1 [,))))))%]_1 ==^{{{{{^{$>34>#*#=",
"#============-----/:& (:,,,,,144_____}}}}}1 ==---{{{{/$;3&$=###",
"==-----------{{{{{/:& (:,))),144444 4&11111 ==----^{{{$>34^====",
"{/$$$$$$''''''''$$':& (:)))),1&{-====-$':,1 ==--^^^^^{$;34{-{{/",
"::::::::[[[[:::::::%& (:))),,14*=------{;,1 =-{{{{{///';3 (;:::",
"&&&&&&&&&&&&&&&&&&&&4 :[))),,14*=^{{{{{{;,1&:;(((((((::[34&1!!!",
"            ~~~~~     :[))),,14*=---{{{/;,13&&&&&&&&&&&&&4&&111",
" '-=#==============[  ::,)),,14*=----^{{;,1&               4&&&",
"'=#@.+56666666665+*;4 [:,,)),14*=--^^^^{;,1 {*=====---{$$$$([%&",
"-#@.+5666665++++.@#'& ),,,)),14@#=-^<<^{;,1 ***#===--{{{{{/>:_&",
"=@.+55+++++..@@@@*='& ___]__}14@#=-^<^^{;,1 =#==-{{{$$$$$$';:]&",
"#@.++++.@@@@@@**##-'& &&&&&&&&4@#=-^^^<{;,1 -=-{$$$'''''''';:%&",
"#@@..@@@@****####=-;&       4&4@#=-<^<^{;,1 --{$'''''''''''>()&",
"#@.@@@**##=====#*={;& ((;;;((&4*=--<^^-{;,1 --$'''''''$''''>(,&",
"=..@@#========#**#{;& ;>;;>>,&4*=---^--{;,1 --/''$$$$$$$$$$';[&",
"=..@*#=======##**={;& ;>((;>,&4*=------{>,1 $-/$$$$$$$$$/$$$;:&",
"=.@*#=====#==####={;&4;>;;>>,&4@#=------>:1 $^/$$$$$///////$;:&",
"=@#==============={(&4(;((;(,&4*=------=':14$-{/$$$////////$>:&",
"-==-----------==-{$:&&),[[[)]&4==------->:14'{{/$$$$$$$$$//$;:&",
";{{{{{{{{{{{{{{-{$':&&&&&&&&&44'{{/{{{{{;[1&(''>>>>>>>>'>>>;(:&",
"&:(((((((((((((((::)& ~7777~~~~[(((;;;;(:)&&%[:[,,,,[[[[,[,[[)&",
"4&&&&&&&&&&&&&&&&&&&& ~^@@@^,~~&&&&&&&&&&&&&&&&&1111&&&111&&&&&",
"~~~~ ~       ~~~~~~ 4 ~=.@@#( ~                  444   444     ",
"======={^4;-==####-;:& *@#={:4~*#**********************###****+",
"==####={/&-##==###->,&~##-^$)&4=##===============#**#=========#",
"{{-==={$'&-*#=----{;)&~#={/')&4-={{{{{{{{{{{{{{{{{{{{{{{{{{{{{$",
"'${{{{$>:&-#=-{{{/':%& --{$>)&4{{$'''''''''$'''''$$$$''''''$$'$",
";;>''>;(:&=={/$$$'(,]&4;''>()3&'$;;;;;;;;;;;;;;;;;;;;;;;;;;;;;;",
"),,,,,,,,&=-$>;;((,]&&&&[::,}34:(,))))))))))))))),,,)))))))))))",
"}}_____]&&-->(::[)]&4(;&1_)%_&&]]_}}}}}}}}}}}}}}}}}}}}}}}}}}}}}",
"&&&&&&&&&4;':))%_}& ;{':&3}_&4        4&&&33111111111111111113&",
"&~~ ~~  ~77~4&&&&&& =={$:&&& /-**=-{$'>(,)]}            444&&&&",
" /###*##=#==####*/4~##-/>)&4{=*+++@@@*###################==#{,&",
"~#@@@*##======={$(& #={$>,1&=@@***#####====##==============-$)1",
" ##===--{{{{{{{>[_& =={';[1&##=---{{{{{{{{{{{{{{{{{{{{{{{{{'(%1",
" -=-{{{/$$$$''>()|& ==$;()1&--{///$$$$$$$$$$$$$$$$$$$$$$''>;[]1",
" ${/$'''''>;;(([]|& =->([%1&'{{$''''''''''''>;;;;;;;;;;;;((:)_1",
" ;>((:::::[[,)))_|& $$:,)_1&(/$>;((:::::[:::[,,,,,,,,,[,,)))_|1"};
